# xmcd
# 
# Track frame offsets:
#     150
#     16403
#     27365
#     59010
# 
# Disc length: 1213
# 
# Revision: 0
# Processed by: cddbd v1.5.2PL0 Copyright (c) Steve Scherf et al.
# Submitted via: fre:ac v1.0.17
# 
DISCID=2f04bb04
DTITLE=Turin Brakes - Underdog (Save Me)
DYEAR=2001
DGENRE=
TTITLE0=Underdog (Save Me)
TTITLE1=Nowhere
TTITLE2=Feeling Oblivion (Live)
TTITLE3=Data track
EXTD=
EXTT0=
EXTT1=
EXTT2=
EXTT3=
PLAYORDER=
